<svg xmlns="http://www.w3.org/2000/svg" xmlns:xlink="http://www.w3.org/1999/xlink" width="131.101" height="31.472" viewBox="0 0 131.101 31.472">
  <defs>
    <linearGradient id="linear-gradient" x1="0.406" x2="0.732" y2="0.933" gradientUnits="objectBoundingBox">
      <stop offset="0" stop-color="#1167e7"/>
      <stop offset="1" stop-color="#0f61db"/>
    </linearGradient>
  </defs>
  <g id="Сгруппировать_20111" data-name="Сгруппировать 20111" transform="translate(-40 -24.264)">
    <path id="Контур_23528" data-name="Контур 23528" d="M531.6,20.632l-12.674-7.311a1.115,1.115,0,0,0-1.1,0l-12.674,7.311a1.1,1.1,0,0,0-.545.961V36.228a1.134,1.134,0,0,0,.545.961L517.82,44.5a1.115,1.115,0,0,0,1.1,0L531.6,37.189a1.1,1.1,0,0,0,.545-.961V21.58A1.044,1.044,0,0,0,531.6,20.632Zm-2.1,12.4a1.409,1.409,0,0,1-1.415,1.364h0a1.363,1.363,0,0,1-1.364-1.364v-6.48a.816.816,0,0,0-1.13-.753l-4.714,2.221h0a1.948,1.948,0,0,0-1.1,1.844V38.1a1.364,1.364,0,1,1-2.727,0v-8.22h0a1.971,1.971,0,0,0-1.078-1.831l-7.83-3.688a1.365,1.365,0,1,1,1.169-2.467l7.649,3.6a2.7,2.7,0,0,0,2.922,0l7.6-3.571a1.38,1.38,0,0,1,.649-.169h0a1.383,1.383,0,0,1,1.013.442h0c.026.039.065.065.091.1l.081.125a2.447,2.447,0,0,1,.114.238v.013c.013.039.065.416.078.442s-.013-.013,0,0,0-.026,0,0-.013-.013,0,0h0v9.921Z" transform="translate(-464.6 11.089)" fill="url(#linear-gradient)"/>
    <path id="Контур_30151" data-name="Контур 30151" d="M10.68,0h-2.9L6.039-2.883q-.2-.328-.375-.586A3.255,3.255,0,0,0,5.3-3.91a1.445,1.445,0,0,0-.383-.281.972.972,0,0,0-.434-.1H3.8V0H1.281V-11.2h4q4.078,0,4.078,3.047a3.155,3.155,0,0,1-.18,1.082,3.006,3.006,0,0,1-.508.895,3.219,3.219,0,0,1-.793.688,4.089,4.089,0,0,1-1.035.453v.031a1.606,1.606,0,0,1,.484.254,3.469,3.469,0,0,1,.453.41,5.722,5.722,0,0,1,.418.5q.2.27.363.527ZM3.8-9.312V-6.2H4.9a1.813,1.813,0,0,0,1.3-.469,1.564,1.564,0,0,0,.5-1.18q0-1.469-1.758-1.469ZM18.273-3.3H13.055q.125,1.742,2.2,1.742a4.286,4.286,0,0,0,2.32-.625V-.4A6.1,6.1,0,0,1,14.688.2,4.058,4.058,0,0,1,11.68-.879a4.058,4.058,0,0,1-1.07-3,4.281,4.281,0,0,1,1.156-3.156A3.852,3.852,0,0,1,14.609-8.2a3.5,3.5,0,0,1,2.707,1.039,4,4,0,0,1,.957,2.82ZM15.984-4.812q0-1.719-1.391-1.719a1.328,1.328,0,0,0-1.027.492,2.234,2.234,0,0,0-.527,1.227ZM22.211,0H19.742V-11.844h2.469Zm3.328-9.266a1.442,1.442,0,0,1-1.023-.371,1.2,1.2,0,0,1-.4-.91,1.153,1.153,0,0,1,.4-.906,1.49,1.49,0,0,1,1.023-.352,1.486,1.486,0,0,1,1.027.352,1.158,1.158,0,0,1,.395.906,1.191,1.191,0,0,1-.395.922A1.466,1.466,0,0,1,25.539-9.266ZM26.758,0H24.289V-8h2.469ZM34.9-.289A4.881,4.881,0,0,1,32.484.2,4.083,4.083,0,0,1,29.5-.922,3.859,3.859,0,0,1,28.359-3.8,4.251,4.251,0,0,1,29.582-7.02,4.518,4.518,0,0,1,32.852-8.2,4.2,4.2,0,0,1,34.9-7.82v2.094A2.814,2.814,0,0,0,33.172-6.3a2.275,2.275,0,0,0-1.684.621,2.317,2.317,0,0,0-.621,1.715A2.28,2.28,0,0,0,31.461-2.3a2.182,2.182,0,0,0,1.633.605,3.258,3.258,0,0,0,1.8-.578Zm6.453.2A3.649,3.649,0,0,1,39.7.2q-2.609,0-2.609-2.711V-6.18H35.8V-8h1.3V-9.727l2.461-.7V-8h1.8v1.82h-1.8v3.234q0,1.25.992,1.25a1.673,1.673,0,0,0,.8-.227ZM50.344,0H47.883V-1.219h-.039A2.792,2.792,0,0,1,45.4.2q-2.781,0-2.781-3.367V-8h2.461v4.609q0,1.7,1.344,1.7a1.329,1.329,0,0,0,1.063-.465,1.874,1.874,0,0,0,.4-1.262V-8h2.461ZM65.125,0H62.664V-4.562q0-1.742-1.281-1.742a1.177,1.177,0,0,0-.992.523,2.151,2.151,0,0,0-.383,1.3V0H57.539V-4.609q0-1.7-1.258-1.7a1.206,1.206,0,0,0-1.012.5,2.2,2.2,0,0,0-.379,1.359V0H52.422V-8h2.469v1.25h.031A2.952,2.952,0,0,1,56-7.793a2.952,2.952,0,0,1,1.512-.4A2.3,2.3,0,0,1,59.828-6.7,2.959,2.959,0,0,1,62.516-8.2q2.609,0,2.609,3.219ZM78.406,0H71.734V-11.2h2.523v9.156h4.148Zm7.922,0H83.992V-1.148h-.031A2.607,2.607,0,0,1,81.578.2a2.492,2.492,0,0,1-1.832-.66,2.366,2.366,0,0,1-.668-1.762q0-2.328,2.758-2.687L84.008-5.2q0-1.312-1.422-1.312a4.853,4.853,0,0,0-2.719.852V-7.523a6.116,6.116,0,0,1,1.41-.469,7.413,7.413,0,0,1,1.629-.2q3.422,0,3.422,3.414Zm-2.32-3.25v-.539L82.555-3.6q-1.2.156-1.2,1.086a.9.9,0,0,0,.293.691,1.126,1.126,0,0,0,.793.27,1.462,1.462,0,0,0,1.133-.48A1.735,1.735,0,0,0,84.008-3.25ZM90.781-.93H90.75V0H88.281V-11.844H90.75V-6.8h.031a2.929,2.929,0,0,1,2.6-1.4,2.855,2.855,0,0,1,2.383,1.063A4.582,4.582,0,0,1,96.6-4.227a4.962,4.962,0,0,1-.977,3.211A3.181,3.181,0,0,1,93.016.2,2.521,2.521,0,0,1,90.781-.93ZM90.711-4.3v.82A1.872,1.872,0,0,0,91.156-2.2,1.449,1.449,0,0,0,92.3-1.7a1.514,1.514,0,0,0,1.309-.652A3.15,3.15,0,0,0,94.07-4.2a2.506,2.506,0,0,0-.426-1.551A1.437,1.437,0,0,0,92.43-6.3a1.569,1.569,0,0,0-1.23.555A2.107,2.107,0,0,0,90.711-4.3Z" transform="translate(74 45)" fill="#1167e7" stroke="rgba(0,0,0,0)" stroke-width="1"/>
  </g>
</svg>
